<svg width="51" height="52" viewBox="0 0 51 52" fill="none" xmlns="http://www.w3.org/2000/svg">
<path d="M50.5 34C50.5 43.9411 42.4411 52 32.5 52L5.5 52C2.73857 52 0.499996 49.7614 0.499997 47L0.5 13C0.5 7.47715 4.97715 3 10.5 3L45.5 3C48.2614 3 50.5 5.23858 50.5 8L50.5 34Z" fill="#E8F5E9"/>
<path d="M25.4921 16.9167C22.6648 16.9167 20.3632 19.2393 20.3632 22.0786C20.3632 23.8748 21.2855 25.4607 22.6783 26.3851C20.9961 26.9476 19.5406 27.9988 18.473 29.3741C17.8827 28.9201 17.2232 28.555 16.5122 28.2933C17.5904 27.4929 18.2949 26.2072 18.2949 24.7621C18.2949 22.354 16.3474 20.3828 13.9539 20.3828C11.5605 20.3828 9.61289 22.354 9.61289 24.7621C9.61289 26.208 10.318 27.4943 11.3971 28.2948C8.54029 29.349 6.5 32.109 6.5 35.3572V37.6389C6.50029 37.8128 6.56987 37.9795 6.69324 38.102C6.8166 38.2248 6.98353 38.2932 7.15748 38.2926H17.1681C17.1923 38.2952 17.2166 38.2967 17.2409 38.2964H33.7438C33.7681 38.2967 33.7927 38.2952 33.8166 38.2926H43.828C44.1879 38.2911 44.4793 37.9991 44.4802 37.6389V35.3572C44.4802 32.109 42.4434 29.349 39.5881 28.2945C40.6672 27.4943 41.3723 26.2077 41.3723 24.7618C41.3723 22.3537 39.4247 20.3825 37.0313 20.3825C34.6379 20.3825 32.6903 22.3537 32.6903 24.7618C32.6903 26.2069 33.3951 27.4928 34.4733 28.293C33.7608 28.5553 33.101 28.9216 32.5099 29.3767C31.4428 28.0006 29.9893 26.9479 28.3072 26.3851C29.6996 25.4607 30.6223 23.8748 30.6223 22.0786C30.6223 19.2393 28.3195 16.9167 25.4922 16.9167H25.4921ZM25.4921 18.2264C27.6066 18.2264 29.3112 19.9425 29.3112 22.0786C29.3112 24.1981 27.6332 25.8975 25.5421 25.9247C25.5254 25.9247 25.509 25.9224 25.4921 25.9224C25.4751 25.9224 25.459 25.9247 25.4421 25.9247C23.351 25.8978 21.674 24.1982 21.674 22.0786C21.674 19.9422 23.3772 18.2264 25.4918 18.2264H25.4921ZM13.954 21.6924C15.6318 21.6924 16.9853 23.0541 16.9853 24.762C16.9853 26.4585 15.6493 27.8144 13.9873 27.8328C13.9762 27.8328 13.9654 27.8316 13.954 27.8316C13.9429 27.8316 13.932 27.8328 13.9206 27.8328C12.2587 27.8144 10.9226 26.4582 10.9226 24.762C10.9226 23.0542 12.2762 21.6924 13.9539 21.6924H13.954ZM37.0309 21.6924C38.7087 21.6924 40.0622 23.0541 40.0622 24.762C40.0622 26.4585 38.7262 27.8144 37.0642 27.8328C37.0531 27.8328 37.0423 27.8316 37.0309 27.8316C37.0198 27.8316 37.0089 27.8328 36.9975 27.8328C35.3356 27.8144 33.9995 26.4582 33.9995 24.762C33.9995 23.0542 35.3531 21.6924 37.0308 21.6924H37.0309ZM25.4419 27.2344C25.4586 27.2346 25.475 27.2367 25.4919 27.2367C25.5086 27.2367 25.525 27.2344 25.5419 27.2344C29.7356 27.2612 33.0918 30.6463 33.0918 34.8837L33.0915 36.9863H17.893V34.8837C17.893 30.6459 21.2482 27.2613 25.4413 27.2344H25.4419ZM13.9038 29.144C13.9205 29.1443 13.9369 29.1463 13.9538 29.1463C13.9708 29.1463 13.9869 29.144 14.0038 29.144C15.4223 29.1554 16.7168 29.6445 17.7475 30.4627C17.01 31.7678 16.5834 33.2742 16.5834 34.8841V36.9817H7.80917V35.3571C7.80917 31.9133 10.5169 29.1708 13.9037 29.1437L13.9038 29.144ZM36.9808 29.144C36.9977 29.1443 37.0138 29.1463 37.0307 29.1463C37.0477 29.1463 37.0638 29.144 37.0807 29.144C40.4675 29.1709 43.1753 31.9136 43.1753 35.3574V36.9817H34.3965L34.3962 34.8841C34.3962 33.2751 33.9709 31.7698 33.2347 30.465C34.2658 29.6456 35.5612 29.1553 36.9808 29.144H36.9808Z" fill="#103E13"/>
</svg>
