<svg width="52" height="52" viewBox="0 0 52 52" fill="none" xmlns="http://www.w3.org/2000/svg">
<path d="M50.5 34C50.5 43.9411 42.4411 52 32.5 52L5.5 52C2.73858 52 0.5 49.7614 0.5 47L0.500003 13C0.500004 7.47715 4.97716 3 10.5 3L45.5 3C48.2614 3 50.5 5.23858 50.5 8L50.5 34Z" fill="#E8F5E9"/>
<path d="M28.9163 19.0109C28.6043 19.0109 28.3507 18.7576 28.3507 18.4452V17.4839C28.3507 17.1719 28.6039 16.9182 28.9163 16.9182C29.2284 16.9182 29.482 17.1715 29.482 17.4839V18.4452C29.482 18.7576 29.2284 19.0109 28.9163 19.0109Z" fill="#103E13"/>
<path d="M26.5381 19.0109C26.2261 19.0109 25.9724 18.7576 25.9724 18.4452V17.4839C25.9724 17.1719 26.2256 16.9182 26.5381 16.9182C26.8501 16.9182 27.1037 17.1715 27.1037 17.4839V18.4452C27.1034 18.7576 26.8505 19.0109 26.5381 19.0109Z" fill="#103E13"/>
<path d="M24.16 19.0109C23.848 19.0109 23.5944 18.7576 23.5944 18.4452V17.4839C23.5944 17.1719 23.8476 16.9182 24.16 16.9182C24.4721 16.9182 24.7257 17.1715 24.7257 17.4839V18.4452C24.7257 18.7576 24.4725 19.0109 24.16 19.0109Z" fill="#103E13"/>
<path d="M28.9163 22.9421C28.6043 22.9421 28.3507 22.6888 28.3507 22.3764V21.4155C28.3507 21.1034 28.6039 20.8498 28.9163 20.8498C29.2284 20.8498 29.482 21.103 29.482 21.4155V22.3764C29.482 22.6888 29.2284 22.9421 28.9163 22.9421Z" fill="#103E13"/>
<path d="M26.5381 22.9421C26.2261 22.9421 25.9724 22.6888 25.9724 22.3764V21.4155C25.9724 21.1034 26.2256 20.8498 26.5381 20.8498C26.8501 20.8498 27.1037 21.103 27.1037 21.4155V22.3764C27.1034 22.6888 26.8505 22.9421 26.5381 22.9421Z" fill="#103E13"/>
<path d="M24.16 22.9421C23.848 22.9421 23.5944 22.6888 23.5944 22.3764V21.4155C23.5944 21.1034 23.8476 20.8498 24.16 20.8498C24.4721 20.8498 24.7257 21.103 24.7257 21.4155V22.3764C24.7257 22.6888 24.4725 22.9421 24.16 22.9421Z" fill="#103E13"/>
<path d="M28.9163 26.8734C28.6043 26.8734 28.3507 26.6201 28.3507 26.3077V25.3464C28.3507 25.0344 28.6039 24.7807 28.9163 24.7807C29.2284 24.7807 29.482 25.0339 29.482 25.3464V26.3077C29.482 26.6201 29.2284 26.8734 28.9163 26.8734Z" fill="#103E13"/>
<path d="M26.5381 26.8734C26.2261 26.8734 25.9724 26.6201 25.9724 26.3077V25.3464C25.9724 25.0344 26.2256 24.7807 26.5381 24.7807C26.8501 24.7807 27.1037 25.0339 27.1037 25.3464V26.3077C27.1034 26.6201 26.8505 26.8734 26.5381 26.8734Z" fill="#103E13"/>
<path d="M24.16 26.8734C23.848 26.8734 23.5944 26.6201 23.5944 26.3077V25.3464C23.5944 25.0344 23.8476 24.7807 24.16 24.7807C24.4721 24.7807 24.7257 25.0339 24.7257 25.3464V26.3077C24.7257 26.6201 24.4725 26.8734 24.16 26.8734Z" fill="#103E13"/>
<path d="M28.9163 30.8038C28.6043 30.8038 28.3507 30.5505 28.3507 30.2381V29.2768C28.3507 28.9648 28.6039 28.7111 28.9163 28.7111C29.2284 28.7111 29.482 28.9644 29.482 29.2768V30.2381C29.482 30.5505 29.2284 30.8038 28.9163 30.8038Z" fill="#103E13"/>
<path d="M26.5381 30.8038C26.2261 30.8038 25.9724 30.5505 25.9724 30.2381V29.2768C25.9724 28.9648 26.2256 28.7111 26.5381 28.7111C26.8501 28.7111 27.1037 28.9644 27.1037 29.2768V30.2381C27.1034 30.5505 26.8505 30.8038 26.5381 30.8038Z" fill="#103E13"/>
<path d="M24.16 30.8038C23.848 30.8038 23.5944 30.5505 23.5944 30.2381V29.2768C23.5944 28.9648 23.8476 28.7111 24.16 28.7111C24.4721 28.7111 24.7257 28.9644 24.7257 29.2768V30.2381C24.7257 30.5505 24.4725 30.8038 24.16 30.8038Z" fill="#103E13"/>
<path d="M28.9163 34.735C28.6043 34.735 28.3507 34.4817 28.3507 34.1693V33.2084C28.3507 32.8964 28.6039 32.6427 28.9163 32.6427C29.2284 32.6427 29.482 32.896 29.482 33.2084V34.1693C29.482 34.4813 29.2284 34.735 28.9163 34.735Z" fill="#103E13"/>
<path d="M26.5381 34.735C26.2261 34.735 25.9724 34.4817 25.9724 34.1693V33.2084C25.9724 32.8964 26.2256 32.6427 26.5381 32.6427C26.8501 32.6427 27.1037 32.896 27.1037 33.2084V34.1693C27.1034 34.4813 26.8505 34.735 26.5381 34.735Z" fill="#103E13"/>
<path d="M24.16 34.735C23.848 34.735 23.5944 34.4817 23.5944 34.1693L23.5948 33.2084C23.5948 32.8964 23.848 32.6427 24.1604 32.6427C24.4724 32.6427 24.7261 32.896 24.7261 33.2084V34.1693C24.7257 34.4813 24.4725 34.735 24.16 34.735Z" fill="#103E13"/>
<path d="M8.00047 38.6472C8.00047 38.9592 8.25372 39.2128 8.56615 39.2128H43.0139C43.3259 39.2128 43.5796 38.9596 43.5796 38.6472C43.5796 38.3351 43.3263 38.0815 43.0139 38.0815H41.9682V21.8402C41.9682 21.5282 41.715 21.2745 41.4025 21.2745L32.1668 21.2749V9.56579C32.1668 9.36777 32.0635 9.18474 31.8946 9.08217C31.7262 8.97922 31.5156 8.9729 31.3404 9.06402L20.8401 14.531C20.6527 14.6284 20.5359 14.8217 20.5359 15.0328V25.2605H10.3739C10.0619 25.2605 9.8082 25.5137 9.8082 25.8261V38.0816H8.56489C8.25287 38.0812 8 38.3344 8 38.6469L8.00047 38.6472ZM32.167 29.8423H40.8374V38.082L32.167 38.0816V29.8423ZM32.167 25.9113H40.8374V28.7113L32.167 28.7109V25.9113ZM32.167 22.4057H40.8374V24.7808H32.167V22.4057ZM21.6667 15.3763L31.0353 10.4982V38.0811H21.6667V15.3763ZM13.7359 33.5635C13.7359 32.3896 14.666 31.4342 15.8096 31.4342C16.9531 31.4342 17.8837 32.3892 17.8837 33.5635V38.0818H13.7359V33.5635ZM10.9395 26.3916H20.5358V38.0816H19.015V33.5633C19.015 31.7657 17.5776 30.303 15.8096 30.303C14.0424 30.303 12.605 31.7653 12.605 33.5633V38.0816H10.9395V26.3916Z" fill="#103E13"/>
</svg>
