<svg width="51" height="52" viewBox="0 0 51 52" fill="none" xmlns="http://www.w3.org/2000/svg">
<path d="M50.5 33.5C50.5 43.4411 42.4411 51.5 32.5 51.5L5.5 51.5C2.73857 51.5 0.499996 49.2614 0.499997 46.5L0.5 12.5C0.5 6.97715 4.97715 2.5 10.5 2.5L45.5 2.5C48.2614 2.5 50.5 4.73858 50.5 7.5L50.5 33.5Z" fill="#E8F5E9"/>
<path d="M28.3116 24.1447C28.0708 24.1447 27.8472 24.0785 27.6486 23.972V23.9748C27.6486 24.3537 27.5014 24.7094 27.2342 24.9759C26.967 25.2431 26.6115 25.3903 26.2331 25.3903C25.9888 25.3903 25.7624 25.3225 25.5617 25.2131C25.5414 25.5597 25.4029 25.8837 25.1557 26.1311C24.8886 26.3982 24.5331 26.5455 24.1544 26.5455C23.4021 26.5455 22.7912 25.9541 22.7472 25.2129C22.5144 25.3387 22.2513 25.4047 21.9798 25.3873C21.2398 25.3387 20.6602 24.6993 20.6602 23.9312V17.5646L19.9353 18.8206C19.6592 19.3009 19.1423 19.5992 18.5858 19.5992C18.3146 19.5992 18.0467 19.528 17.8095 19.3921C17.514 19.2208 17.3027 18.9459 17.2148 18.617C17.1265 18.2878 17.1722 17.9436 17.343 17.6486C17.3432 17.6486 19.715 13.5414 19.8597 13.2891C19.8769 13.2512 19.9259 13.1412 19.9676 13.0474C20.0074 12.9579 20.0416 12.866 20.0743 12.7737C20.7896 10.7544 22.5606 9.50004 24.6965 9.50004C27.4702 9.50004 29.7268 11.9469 29.7268 14.9546L29.727 22.729C29.727 23.1074 29.58 23.4629 29.313 23.7303C29.0459 23.9975 28.6904 24.1447 28.3115 24.1447L28.3116 24.1447ZM24.6965 10.2522C22.8612 10.2522 21.3984 11.2888 20.7833 13.0252C20.7439 13.1355 20.7029 13.2457 20.6551 13.3532C20.5163 13.6644 20.5163 13.6644 20.4772 13.7091L20.472 13.7047C20.2784 14.0701 19.703 15.0664 17.9942 18.0251C17.924 18.1464 17.9054 18.2873 17.9412 18.422C17.9775 18.5568 18.0645 18.6704 18.1849 18.7399C18.5585 18.9545 19.0702 18.816 19.2832 18.4449L20.7107 15.9734C20.796 15.8262 20.9684 15.7539 21.1338 15.7986C21.2983 15.8427 21.4125 15.9918 21.4125 16.1619V23.9315C21.4125 24.298 21.6891 24.6144 22.0291 24.6368C22.2251 24.6472 22.408 24.5815 22.5453 24.4443C22.6702 24.3195 22.739 24.1531 22.739 23.9753V18.8939C22.739 18.6861 22.9074 18.5176 23.1152 18.5176C23.323 18.5176 23.4915 18.6859 23.4915 18.8939L23.4912 25.1303C23.4912 25.4959 23.7888 25.7935 24.1544 25.7935C24.3321 25.7935 24.4989 25.7247 24.624 25.5998C24.7489 25.4747 24.8177 25.3079 24.8177 25.1303V18.8939C24.8177 18.6861 24.9859 18.5176 25.1939 18.5176C25.4017 18.5176 25.5702 18.6858 25.5702 18.8939L25.5699 23.9168V23.9752C25.5699 24.3407 25.8675 24.6382 26.2334 24.6382C26.4108 24.6382 26.5771 24.5692 26.7029 24.4438C26.8278 24.3192 26.8966 24.1529 26.8966 23.975V18.8936C26.8966 18.6858 27.0648 18.5174 27.2728 18.5174C27.4806 18.5174 27.6491 18.6856 27.6491 18.8936L27.6486 22.7292C27.6486 23.095 27.9462 23.3926 28.3116 23.3926C28.4894 23.3926 28.6558 23.3236 28.7806 23.199C28.906 23.0736 28.9745 22.9068 28.9745 22.7292L28.9748 14.9548C28.9748 12.3621 27.0556 10.2523 24.6965 10.2523L24.6965 10.2522Z" fill="#103E13"/>
<path d="M13.5291 29.5481L18.9888 26.2728C19.647 25.8775 20.494 26.0455 20.9162 26.6554C21.0703 26.8776 21.149 27.1365 21.1612 27.4002C21.3648 27.2939 21.5863 27.2362 21.8117 27.2362C21.9272 27.2362 22.0431 27.2506 22.1576 27.2791C22.5244 27.3707 22.8335 27.5999 23.0279 27.9241C23.2225 28.2488 23.2793 28.6292 23.1876 28.9956C23.103 29.3347 22.8969 29.62 22.6102 29.8158C22.8107 29.934 22.9836 30.0954 23.1066 30.3009C23.3012 30.6255 23.358 31.0058 23.2665 31.3726C23.1749 31.739 22.9457 32.0481 22.621 32.2429L22.6191 32.2441C22.8161 32.3622 22.986 32.5219 23.1075 32.7243C23.3024 33.0489 23.3591 33.4294 23.2675 33.7962C23.1756 34.1628 22.9464 34.4719 22.6222 34.6665L15.9558 38.6658C14.7116 39.412 13.2733 39.6695 11.9063 39.3903C10.5271 39.1085 9.38494 38.3158 8.69043 37.158C7.59135 35.3262 7.75606 33.162 9.11946 31.5102C9.18189 31.4348 9.24338 31.358 9.29922 31.2784C9.35836 31.1943 9.42739 31.0953 9.45094 31.0614C9.59207 30.8093 11.8948 26.6604 11.8946 26.6609C12.1271 26.2413 12.563 26.0038 13.0125 26.004C13.2222 26.004 13.4349 26.0556 13.6312 26.1645C13.8682 26.2969 14.0673 26.4898 14.2065 26.7224C14.4928 27.1995 14.5029 27.7965 14.2334 28.2797L13.5291 29.5481ZM13.5618 27.1092C13.4888 26.9874 13.3884 26.8903 13.2657 26.8215C13.0119 26.6811 12.6925 26.7725 12.5528 27.0253C10.905 29.9938 10.3433 31.0055 10.1266 31.3655L10.1315 31.3667C10.1134 31.427 10.1134 31.427 9.91499 31.7104C9.84761 31.8063 9.77434 31.8984 9.69965 31.9891C8.52729 33.4095 8.39116 35.197 9.33518 36.771C9.91994 37.7459 10.8864 38.4143 12.0566 38.6532C13.2395 38.8938 14.4863 38.6699 15.5684 38.0207L22.2354 34.0212C22.3876 33.93 22.4951 33.7851 22.5379 33.6134C22.5808 33.4418 22.5542 33.2635 22.4628 33.1113C22.2748 32.798 21.8665 32.695 21.5531 32.8837L18.2642 34.8569C18.0861 34.9638 17.8547 34.9063 17.748 34.728C17.641 34.5499 17.6988 34.3187 17.8769 34.2118L21.166 32.2386L22.2343 31.5978C22.3864 31.5064 22.4941 31.3615 22.537 31.1902C22.5799 31.0185 22.5532 30.8399 22.4618 30.6879C22.2736 30.3744 21.8653 30.2723 21.5522 30.4604L17.1948 33.0743C17.0162 33.1815 16.7856 33.1236 16.6786 32.9455C16.5717 32.7673 16.6296 32.5362 16.8075 32.4293L22.1553 29.2211C22.3075 29.1297 22.415 28.9851 22.4578 28.8133C22.5007 28.6418 22.4741 28.4635 22.3829 28.3113C22.2917 28.1593 22.1468 28.0519 21.9751 28.009C21.8024 27.9661 21.6248 27.9927 21.473 28.0837L20.4831 28.6776C20.4828 28.6776 20.4828 28.6779 20.4826 28.6779H20.4824L16.1252 31.2918C15.9466 31.3993 15.7157 31.3413 15.609 31.163C15.5021 30.9849 15.56 30.7537 15.7379 30.6468L20.0953 28.0328C20.2475 27.9414 20.3551 27.7965 20.398 27.6252C20.4451 27.4372 20.4093 27.245 20.2976 27.0838C20.104 26.8037 19.6898 26.7292 19.3758 26.9179L12.7136 30.9147C12.5677 31.0018 12.3809 30.9806 12.2586 30.8626C12.1361 30.7443 12.1086 30.5584 12.191 30.4098L13.5764 27.9138C13.7154 27.6643 13.7099 27.3562 13.5617 27.1093L13.5618 27.1092Z" fill="#103E13"/>
<path d="M39.6181 37.1577C38.9238 38.3157 37.7819 39.1083 36.4025 39.3901C35.0353 39.6688 33.5974 39.4117 32.353 38.6656L25.686 34.6661C25.3616 34.4715 25.1321 34.1624 25.0402 33.7953C24.949 33.4289 25.006 33.0484 25.2004 32.7243C25.3217 32.5216 25.4918 32.3619 25.689 32.2439L25.6871 32.2427C25.3627 32.0481 25.1333 31.739 25.0419 31.3724C24.95 31.0058 25.007 30.625 25.2016 30.3004C25.3269 30.0919 25.4987 29.9289 25.6947 29.8132C25.4101 29.6174 25.2051 29.3331 25.1208 28.9957C25.0289 28.6288 25.0859 28.2483 25.2805 27.9242C25.4749 27.5997 25.7842 27.3705 26.1508 27.2789C26.2653 27.2501 26.3815 27.236 26.4965 27.236C26.7222 27.2362 26.9436 27.2935 27.1472 27.4C27.1597 27.1363 27.2381 26.8774 27.3922 26.6552C27.8146 26.0458 28.6609 25.8771 29.3201 26.2726L34.7796 29.5474L34.0759 28.2799C33.8059 27.796 33.8158 27.199 34.1021 26.7216C34.2415 26.4893 34.4408 26.2964 34.679 26.1628C34.8748 26.0544 35.0869 26.0031 35.296 26.0031C35.7453 26.0033 36.1817 26.2403 36.4139 26.6599C37.2235 28.1185 38.7511 30.8694 38.8585 31.0614C38.8813 31.0946 38.9504 31.1936 39.0095 31.2777C39.0658 31.3575 39.1266 31.4339 39.1895 31.5097C40.5527 33.1622 40.7171 35.3262 39.6181 37.1578L39.6181 37.1577ZM38.6091 31.9892C38.5341 31.8985 38.4606 31.8059 38.3937 31.7105C38.1902 31.4217 38.185 31.4141 38.1697 31.3385C37.9317 30.9448 37.3512 29.8997 35.7555 27.0249C35.6156 26.7726 35.2975 26.6805 35.0443 26.8204C34.9196 26.8901 34.8195 26.9874 34.7465 27.1093C34.5985 27.3559 34.5928 27.6641 34.7326 27.9143L36.1174 30.4095C36.2001 30.5584 36.1725 30.7441 36.0503 30.8623C35.9282 30.9808 35.7416 31.0016 35.5951 30.9144L28.9329 26.9177C28.6189 26.7295 28.2049 26.8032 28.0108 27.0836C27.8991 27.2447 27.8635 27.437 27.9102 27.6247C27.9531 27.7963 28.0607 27.9409 28.2132 28.0323C28.2136 28.0326 28.2139 28.033 28.2143 28.0333L32.5703 30.6465C32.7484 30.7535 32.8062 30.9844 32.6992 31.1627C32.5922 31.3406 32.3616 31.3988 32.183 31.2916L26.8352 28.0835C26.6834 27.9925 26.5048 27.9657 26.3333 28.0088C26.1613 28.0517 26.0167 28.1591 25.9255 28.3115C25.8341 28.4635 25.8077 28.6418 25.8501 28.8133C25.893 28.9849 26.0007 29.1297 26.1529 29.2212L27.1935 29.8453L31.5005 32.4293C31.6786 32.5363 31.7363 32.7672 31.6293 32.9455C31.5224 33.1234 31.2917 33.1814 31.1131 33.0744L26.7562 30.4604C26.4429 30.2719 26.0348 30.3742 25.8464 30.688C25.755 30.8402 25.7286 31.0186 25.771 31.1901C25.8139 31.3616 25.9215 31.5062 26.0739 31.5979L27.1422 32.2387L30.4308 34.2119C30.609 34.3188 30.6667 34.5497 30.5597 34.7281C30.4528 34.9059 30.2221 34.9644 30.0435 34.8569L26.7548 32.8838C26.6031 32.7928 26.4252 32.766 26.2528 32.8091C26.0813 32.852 25.9361 32.9594 25.845 33.1114C25.7538 33.2636 25.7272 33.4421 25.7696 33.6134C25.8124 33.7849 25.9201 33.9296 26.0725 34.0212L32.7395 38.0207C33.8214 38.6698 35.0691 38.8945 36.2514 38.6533C37.4213 38.4144 38.3878 37.746 38.9725 36.7711C39.9175 35.1968 39.7816 33.4091 38.6095 31.9892L38.6091 31.9892Z" fill="#103E13"/>
</svg>
